<?xml version="1.0" encoding="UTF-8" standalone="no"?>
<svg xmlns="http://www.w3.org/2000/svg" width="3000" height="2987.762" version="1.1" viewBox="0 0 3000 2987.762">
   <defs>
	  <clipPath clipPathUnits="userSpaceOnUse">
		 <path d="M1777.75 2009.322h437.194v-283.21h-437.195v283.21z">
		 </path>
	  </clipPath>
   </defs>
   <g transform="translate(351.6 3038.727)">
	  <g fillOpacity="1" transform="matrix(28.0537 0 0 28.0537 9512.092 1378.8)">
		 <path fill="#007f46" fillRule="nonzero" stroke="#007f46" strokeDasharray="none" strokeLinecap="butt" strokeLinejoin="miter" strokeMiterlimit="3.864" strokeOpacity="1" strokeWidth="0.362" d="M-351.42-157.286h106.576v106.14h-106.575v-106.14z">
		 </path>
		 <path fill="#fff" fillRule="evenodd" stroke="none" d="M-328.198-81.311c0-1.168-.269-2.112-.898-2.83-.539-.72-1.302-1.079-2.29-1.079-.99 0-1.753.315-2.337 1.033-.539.674-.809 1.618-.853 2.876v7.284l6.449.011zm-11.185-7.863c-2.022 2.067-3.01 4.808-3.01 8.223v20.662h7.817l-.002-6.639 6.39-.002-.01 6.64h7.862V-80.95c-.046-3.415-1.035-6.156-3.057-8.223-2.066-2.111-4.715-3.144-8.017-3.122-3.301.023-5.951 1.056-7.973 3.122zm43.03-2.64l.015 31.513 7.748.012v-11.94h6.2v11.94h7.86v-31.49h-7.86v12.002h-6.2V-91.78l-7.764-.035zm-2.538.023l-5.175.014c-4.224 0-7.683 1.527-10.422 4.582-2.786 3.055-4.135 6.783-4.135 11.185.045 4.402 1.394 8.086 4.135 11.14 2.83 3.055 6.289 4.583 10.422 4.583l5.289-.065-.037-7.502-3.817.014c-2.336-.044-4.222-.719-5.66-2.066-1.438-1.438-2.156-3.459-2.156-6.11 0-2.74.718-4.761 2.156-6.109 1.438-1.437 3.324-2.111 5.66-2.111h3.74zm35.846.014c-2.785 0-5.032.717-6.828 2.154-1.797 1.438-2.695 3.685-2.695 6.74.044 2.246.673 3.951 1.931 5.21 1.348 1.302 3.19 2.786 5.616 4.538 2.515 1.797 3.728 3.056 3.728 3.864-.045 1.168-.988 1.707-2.92 1.707h-8.13v7.275h8.4c4.492 0 7.456-.898 8.894-2.695 1.482-1.797 2.201-4.041 2.201-6.737-.045-2.2-.763-3.954-2.2-5.347-1.483-1.438-3.415-2.965-5.84-4.582-2.472-1.707-3.684-2.874-3.684-3.547.045-.495.18-.811.494-.99.36-.225.764-.313 1.303-.313h7.906v-7.277z">
		 </path>
	  </g>
   </g>
</svg>
